<svg width="358" height="376" viewBox="0 0 358 376" fill="none" xmlns="http://www.w3.org/2000/svg">
<g clip-path="url(#clip0_1124_33875)">
<g filter="url(#filter0_f_1124_33875)">
<path d="M309.861 250.337C307.587 250.337 305.743 252.175 305.743 254.443C305.743 256.711 307.587 258.55 309.861 258.55C312.135 258.55 313.979 256.711 313.979 254.443C313.979 252.175 312.135 250.337 309.861 250.337Z" fill="#EFA40E"/>
</g>
<g filter="url(#filter1_f_1124_33875)">
<path d="M269.861 280.337C267.587 280.337 265.743 282.175 265.743 284.443C265.743 286.711 267.587 288.55 269.861 288.55C272.135 288.55 273.979 286.711 273.979 284.443C273.979 282.175 272.135 280.337 269.861 280.337Z" fill="#EFA40E"/>
</g>
<g filter="url(#filter2_f_1124_33875)">
<path d="M322.925 308.653C320.355 308.653 318.271 310.731 318.271 313.295C318.271 315.858 320.355 317.936 322.925 317.936C325.496 317.936 327.579 315.858 327.579 313.295C327.579 310.731 325.496 308.653 322.925 308.653Z" fill="#0ECDEF"/>
</g>
<g filter="url(#filter3_f_1124_33875)">
<path d="M292.925 358.653C290.355 358.653 288.271 360.731 288.271 363.295C288.271 365.858 290.355 367.936 292.925 367.936C295.496 367.936 297.579 365.858 297.579 363.295C297.579 360.731 295.496 358.653 292.925 358.653Z" fill="#0ECDEF"/>
</g>
<g filter="url(#filter4_f_1124_33875)">
<path d="M192.925 348.653C190.355 348.653 188.271 350.731 188.271 353.295C188.271 355.858 190.355 357.936 192.925 357.936C195.496 357.936 197.579 355.858 197.579 353.295C197.579 350.731 195.496 348.653 192.925 348.653Z" fill="#0ECDEF"/>
</g>
<path d="M231.247 325.789L232.524 329.439L229.969 329.044C229.724 328.995 229.38 329.192 229.233 329.587C229.282 329.932 229.478 330.228 229.773 330.326L233.114 330.869L234.293 334.222L227.513 333.039C227.071 332.989 226.727 333.187 226.776 333.532C226.629 333.926 226.825 334.222 227.267 334.272L234.735 335.603L235.914 338.612L231.148 344.382L228.348 343.938L225.597 336.294C225.499 336.195 225.45 336.096 225.352 336.047C225.253 335.948 224.959 335.899 224.811 335.899C224.369 336.047 224.222 336.392 224.467 336.738L226.924 343.741L223.485 343.099L222.109 339.549C222.158 339.45 222.109 339.401 222.011 339.302C221.814 339.154 221.52 339.105 221.274 339.203C221.028 339.302 220.881 339.697 220.93 340.042L222.06 342.902L217.737 342.162C217.491 342.113 217.147 342.31 217 342.656C217.049 343.001 217.246 343.346 217.491 343.395L221.569 344.086L219.948 346.058C219.702 346.305 219.8 346.749 219.997 346.897C220.291 347.143 220.734 347.193 220.979 346.897L223.092 344.332L226.531 344.973L222.158 350.3C221.913 350.546 221.962 350.892 222.207 351.138C222.502 351.385 222.846 351.335 223.092 351.089L227.906 345.22L230.903 345.615L233.457 352.716L231.689 354.886L224.025 353.604C223.632 353.456 223.239 353.752 223.288 354.097C223.141 354.442 223.436 354.689 223.779 354.837L230.755 356.021L228.496 358.733L225.057 358.141C224.762 358.043 224.369 358.338 224.32 358.634C224.271 358.93 224.516 359.276 224.909 359.423L227.562 359.867L224.811 363.221C224.566 363.467 224.713 363.911 225.008 364.158C225.155 364.306 225.597 364.355 225.843 364.059L228.594 360.755L229.626 363.369C229.724 363.615 230.019 363.862 230.412 363.714C230.657 363.615 230.903 363.172 230.755 362.925L229.527 359.621L231.787 356.859L234.243 363.517C234.44 363.862 234.735 364.109 235.128 363.961C235.373 363.862 235.619 363.418 235.472 363.172L232.721 355.725L234.538 353.555L241.907 354.788L242.89 357.648L238.026 363.517C237.83 363.813 237.83 364.158 238.124 364.404C238.419 364.651 238.861 364.651 239.058 364.404L243.43 359.078L244.707 362.382L242.595 364.947C242.349 365.194 242.398 365.539 242.693 365.785C242.988 366.032 243.332 365.983 243.528 365.736L245.199 363.714L246.574 367.61C246.672 367.857 247.164 368.103 247.409 367.955C247.704 367.758 247.95 367.462 247.753 367.166L246.329 363.122L249.276 363.615C249.62 363.566 249.915 363.369 249.964 363.122C250.062 362.826 249.964 362.58 249.767 362.432C249.767 362.432 249.669 362.333 249.473 362.382L245.788 361.692L244.511 358.388L251.831 359.522C252.175 359.67 252.519 359.473 252.568 359.029C252.568 358.881 252.519 358.684 252.322 358.536C252.224 358.437 252.175 358.388 252.076 358.289L244.02 357.056L243.086 354.344L247.852 348.574L251.045 349.165L253.698 356.316C253.845 356.76 254.189 356.859 254.533 356.662C254.877 356.662 254.975 356.267 254.877 355.873L252.469 349.363L255.957 349.905L257.136 353.111C257.235 353.357 257.628 353.505 257.972 353.456C258.266 353.259 258.512 352.963 258.316 352.667L257.48 350.201L261.263 350.793C261.607 350.941 261.853 350.645 262 350.3C262 350.152 261.853 349.905 261.705 349.708C261.705 349.708 261.607 349.659 261.509 349.56L257.431 348.919L259.396 346.552C259.544 346.354 259.593 345.911 259.298 345.664C259.052 345.417 258.61 345.565 258.463 345.763L256.056 348.672L252.519 348.13L257.284 342.36C257.48 342.113 257.382 341.669 257.087 341.423C256.793 341.176 256.449 341.225 256.252 341.521L250.996 347.834L248.097 347.341L245.543 340.239L247.557 337.773L255.319 339.154C255.663 339.154 256.007 338.907 256.154 338.562C256.105 338.414 256.007 338.118 255.81 337.97C255.712 337.921 255.614 337.822 255.466 337.822L248.49 336.639L250.75 333.926L254.287 334.469C254.533 334.518 254.877 334.321 255.024 333.976C254.975 333.631 254.778 333.285 254.533 333.236L251.683 332.792L254.189 329.784C254.336 329.587 254.287 329.044 254.091 328.896C253.845 328.649 253.305 328.699 253.157 328.896L250.652 331.904L249.817 329.291C249.718 329.241 249.62 329.143 249.522 329.093C249.325 328.896 249.08 328.847 248.883 328.847C248.588 329.093 248.441 329.439 248.441 329.784L249.718 333.039L247.459 335.8L245.002 329.143C244.904 328.699 244.511 328.6 244.265 328.699C243.872 328.797 243.725 329.192 243.725 329.537L246.525 336.935L244.511 339.401L237.093 338.168L236.061 335.406L241.269 329.044C241.514 328.797 241.465 328.403 241.17 328.206C240.925 327.959 240.581 328.008 240.335 328.255L235.57 334.025L234.391 330.671L236.798 327.712C236.945 327.564 236.896 327.022 236.651 326.775C236.356 326.529 235.914 326.677 235.766 326.874L233.801 329.241L232.426 325.345C232.328 325.296 232.328 325.296 232.229 325.197C232.033 325.049 231.787 325 231.591 325C231.296 325.197 231.148 325.542 231.247 325.789ZM243.528 340.535L244.364 340.732L244.609 341.373L246.672 347.094L246.918 347.785L246.427 348.376L242.644 353.012L242.153 353.555L241.465 353.456L235.472 352.42L234.735 352.322L234.44 351.582L232.426 345.911L232.082 345.171L232.573 344.579L236.405 339.992L236.847 339.401L237.633 339.598L243.528 340.535Z" fill="#EFA40E"/>
<path d="M336.73 225.676L336.948 223.568L338.119 224.351C338.255 224.459 338.445 224.432 338.609 224.297C338.691 224.108 338.663 223.892 338.527 223.811L337.002 222.73L337.193 220.784L340.324 222.973C340.542 223.108 340.733 223.081 340.815 222.919C340.951 222.757 340.951 222.541 340.733 222.432L337.275 220L337.438 218.243L341.196 216.514L342.503 217.378L342.013 221.838C342.04 221.892 342.067 221.946 342.122 222.027C342.149 222.081 342.258 222.162 342.339 222.189C342.585 222.243 342.748 222.081 342.721 221.892L343.156 217.838L344.709 218.973L344.572 221.027C344.491 221.054 344.518 221.135 344.572 221.189C344.627 221.297 344.736 221.405 344.899 221.405C345.035 221.405 345.199 221.27 345.253 221.081L345.362 219.405L347.35 220.784C347.486 220.892 347.704 220.865 347.84 220.703C347.922 220.541 347.895 220.324 347.786 220.216L345.907 218.946L347.187 218.351C347.377 218.27 347.404 218.027 347.35 217.892C347.268 217.703 347.078 217.595 346.887 217.676L345.226 218.432L343.647 217.297L347.078 215.73C347.268 215.649 347.35 215.459 347.268 215.27C347.159 215.081 346.996 215.027 346.805 215.108L342.993 216.865L341.604 215.946L341.985 211.838L343.401 211.189L346.941 213.649C347.078 213.784 347.35 213.757 347.432 213.568C347.595 213.432 347.486 213.243 347.35 213.081L344.137 210.838L345.934 210.027L347.513 211.162C347.622 211.243 347.895 211.189 347.976 211.081C348.058 210.973 348.031 210.703 347.895 210.541L346.669 209.703L348.82 208.703C349.011 208.622 349.038 208.378 348.957 208.189C348.902 208.081 348.684 207.946 348.494 208.027L346.342 209.027L346.451 207.486C346.479 207.324 346.37 207.162 346.152 207.108C345.988 207.108 345.771 207.297 345.771 207.432L345.607 209.351L343.837 210.189L344.191 206.297C344.164 206.108 344.082 205.919 343.837 205.865C343.701 205.865 343.483 206.054 343.456 206.189L343.102 210.514L341.686 211.162L338.255 208.811L338.473 207.162L342.285 205.405C342.476 205.324 342.53 205.135 342.448 204.973C342.367 204.784 342.149 204.649 341.958 204.73L338.527 206.324L338.663 204.405L340.324 203.622C340.515 203.541 340.569 203.378 340.488 203.189C340.406 203 340.243 202.946 340.052 203.027L338.745 203.622L338.963 201.351C338.99 201.216 338.799 201 338.663 201C338.445 201.027 338.255 201.108 338.282 201.324L338.037 203.649L336.703 202.703C336.512 202.649 336.294 202.676 336.213 202.784C336.104 202.892 336.104 203.054 336.158 203.189C336.158 203.189 336.185 203.243 336.267 203.27L337.983 204.486L337.819 206.405L334.442 204.108C334.279 203.973 334.061 204 333.952 204.189C333.925 204.27 333.871 204.378 333.925 204.486C333.952 204.568 334.007 204.622 334.034 204.676L337.737 207.189L337.574 208.757L333.816 210.486L332.373 209.432L332.727 205.27C332.781 205.027 332.618 204.865 332.4 204.892C332.237 204.838 332.073 204.973 332.046 205.216L331.719 209L330.086 207.892L330.249 206.027C330.249 205.892 330.113 205.73 329.922 205.676C329.704 205.703 329.541 205.784 329.568 206L329.405 207.405L327.635 206.189C327.499 206.054 327.308 206.135 327.145 206.27C327.117 206.378 327.117 206.514 327.172 206.649C327.172 206.649 327.199 206.703 327.226 206.757L329.105 208.054L327.553 208.757C327.444 208.811 327.308 209.027 327.39 209.216C327.471 209.378 327.716 209.432 327.853 209.378L329.759 208.486L331.393 209.595L327.635 211.324C327.444 211.405 327.417 211.649 327.499 211.838C327.58 212.027 327.771 212.081 327.962 212L332.073 210.108L333.408 211.027L332.999 215.162L331.42 215.892L327.853 213.378C327.662 213.297 327.444 213.324 327.308 213.486C327.254 213.568 327.254 213.703 327.308 213.838C327.335 213.892 327.362 213.973 327.471 214L330.657 216.216L328.887 217.054L327.254 215.946C327.145 215.838 326.927 215.865 326.763 216.027C326.709 216.189 326.736 216.405 326.845 216.514L328.152 217.378L326.192 218.297C326.055 218.351 325.946 218.622 326.028 218.73C326.11 218.919 326.382 219.027 326.491 218.946L328.452 218.054L328.261 219.541C328.288 219.622 328.316 219.676 328.343 219.73C328.397 219.865 328.533 219.946 328.615 219.973C328.833 219.973 328.996 219.811 329.051 219.649L329.187 217.703L330.984 216.892L330.63 220.757C330.576 221 330.739 221.162 330.875 221.162C331.12 221.216 331.284 221.054 331.338 220.892L331.719 216.568L333.326 215.811L336.73 218.189L336.594 219.811L332.482 221.703C332.291 221.784 332.237 221.973 332.318 222.135C332.4 222.324 332.564 222.378 332.754 222.297L336.512 220.595L336.294 222.541L334.388 223.405C334.279 223.459 334.17 223.73 334.252 223.919C334.334 224.108 334.579 224.135 334.715 224.081L336.24 223.378L336.022 225.622C336.049 225.676 336.049 225.676 336.076 225.757C336.131 225.865 336.267 225.973 336.349 226C336.567 225.973 336.73 225.838 336.73 225.676ZM334.061 215.486L333.707 215.189L333.734 214.811L334.061 211.486L334.088 211.081L334.47 210.919L337.492 209.541L337.846 209.378L338.173 209.595L340.951 211.514L341.277 211.73L341.25 212.189L340.923 215.459L340.896 215.892L340.542 216.081L337.52 217.459L337.138 217.622L336.784 217.351L334.061 215.486Z" fill="#1BD7B5" fill-opacity="0.94"/>
<path d="M336.73 265.676L336.948 263.568L338.119 264.351C338.255 264.459 338.445 264.432 338.609 264.297C338.691 264.108 338.663 263.892 338.527 263.811L337.002 262.73L337.193 260.784L340.324 262.973C340.542 263.108 340.733 263.081 340.815 262.919C340.951 262.757 340.951 262.541 340.733 262.432L337.275 260L337.438 258.243L341.196 256.514L342.503 257.378L342.013 261.838C342.04 261.892 342.067 261.946 342.122 262.027C342.149 262.081 342.258 262.162 342.339 262.189C342.585 262.243 342.748 262.081 342.721 261.892L343.156 257.838L344.709 258.973L344.572 261.027C344.491 261.054 344.518 261.135 344.572 261.189C344.627 261.297 344.736 261.405 344.899 261.405C345.035 261.405 345.199 261.27 345.253 261.081L345.362 259.405L347.35 260.784C347.486 260.892 347.704 260.865 347.84 260.703C347.922 260.541 347.895 260.324 347.786 260.216L345.907 258.946L347.187 258.351C347.377 258.27 347.404 258.027 347.35 257.892C347.268 257.703 347.078 257.595 346.887 257.676L345.226 258.432L343.647 257.297L347.078 255.73C347.268 255.649 347.35 255.459 347.268 255.27C347.159 255.081 346.996 255.027 346.805 255.108L342.993 256.865L341.604 255.946L341.985 251.838L343.401 251.189L346.941 253.649C347.078 253.784 347.35 253.757 347.432 253.568C347.595 253.432 347.486 253.243 347.35 253.081L344.137 250.838L345.934 250.027L347.513 251.162C347.622 251.243 347.895 251.189 347.976 251.081C348.058 250.973 348.031 250.703 347.895 250.541L346.669 249.703L348.82 248.703C349.011 248.622 349.038 248.378 348.957 248.189C348.902 248.081 348.684 247.946 348.494 248.027L346.342 249.027L346.451 247.486C346.479 247.324 346.37 247.162 346.152 247.108C345.988 247.108 345.771 247.297 345.771 247.432L345.607 249.351L343.837 250.189L344.191 246.297C344.164 246.108 344.082 245.919 343.837 245.865C343.701 245.865 343.483 246.054 343.456 246.189L343.102 250.514L341.686 251.162L338.255 248.811L338.473 247.162L342.285 245.405C342.476 245.324 342.53 245.135 342.448 244.973C342.367 244.784 342.149 244.649 341.958 244.73L338.527 246.324L338.663 244.405L340.324 243.622C340.515 243.541 340.569 243.378 340.488 243.189C340.406 243 340.243 242.946 340.052 243.027L338.745 243.622L338.963 241.351C338.99 241.216 338.799 241 338.663 241C338.445 241.027 338.255 241.108 338.282 241.324L338.037 243.649L336.703 242.703C336.512 242.649 336.294 242.676 336.213 242.784C336.104 242.892 336.104 243.054 336.158 243.189C336.158 243.189 336.185 243.243 336.267 243.27L337.983 244.486L337.819 246.405L334.442 244.108C334.279 243.973 334.061 244 333.952 244.189C333.925 244.27 333.871 244.378 333.925 244.486C333.952 244.568 334.007 244.622 334.034 244.676L337.737 247.189L337.574 248.757L333.816 250.486L332.373 249.432L332.727 245.27C332.781 245.027 332.618 244.865 332.4 244.892C332.237 244.838 332.073 244.973 332.046 245.216L331.719 249L330.086 247.892L330.249 246.027C330.249 245.892 330.113 245.73 329.922 245.676C329.704 245.703 329.541 245.784 329.568 246L329.405 247.405L327.635 246.189C327.499 246.054 327.308 246.135 327.145 246.27C327.117 246.378 327.117 246.514 327.172 246.649C327.172 246.649 327.199 246.703 327.226 246.757L329.105 248.054L327.553 248.757C327.444 248.811 327.308 249.027 327.39 249.216C327.471 249.378 327.716 249.432 327.853 249.378L329.759 248.486L331.393 249.595L327.635 251.324C327.444 251.405 327.417 251.649 327.499 251.838C327.58 252.027 327.771 252.081 327.962 252L332.073 250.108L333.408 251.027L332.999 255.162L331.42 255.892L327.853 253.378C327.662 253.297 327.444 253.324 327.308 253.486C327.254 253.568 327.254 253.703 327.308 253.838C327.335 253.892 327.362 253.973 327.471 254L330.657 256.216L328.887 257.054L327.254 255.946C327.145 255.838 326.927 255.865 326.763 256.027C326.709 256.189 326.736 256.405 326.845 256.514L328.152 257.378L326.192 258.297C326.055 258.351 325.946 258.622 326.028 258.73C326.11 258.919 326.382 259.027 326.491 258.946L328.452 258.054L328.261 259.541C328.288 259.622 328.316 259.676 328.343 259.73C328.397 259.865 328.533 259.946 328.615 259.973C328.833 259.973 328.996 259.811 329.051 259.649L329.187 257.703L330.984 256.892L330.63 260.757C330.576 261 330.739 261.162 330.875 261.162C331.12 261.216 331.284 261.054 331.338 260.892L331.719 256.568L333.326 255.811L336.73 258.189L336.594 259.811L332.482 261.703C332.291 261.784 332.237 261.973 332.318 262.135C332.4 262.324 332.564 262.378 332.754 262.297L336.512 260.595L336.294 262.541L334.388 263.405C334.279 263.459 334.17 263.73 334.252 263.919C334.334 264.108 334.579 264.135 334.715 264.081L336.24 263.378L336.022 265.622C336.049 265.676 336.049 265.676 336.076 265.757C336.131 265.865 336.267 265.973 336.349 266C336.567 265.973 336.73 265.838 336.73 265.676ZM334.061 255.486L333.707 255.189L333.734 254.811L334.061 251.486L334.088 251.081L334.47 250.919L337.492 249.541L337.846 249.378L338.173 249.595L340.951 251.514L341.277 251.73L341.25 252.189L340.923 255.459L340.896 255.892L340.542 256.081L337.52 257.459L337.138 257.622L336.784 257.351L334.061 255.486Z" fill="#1BD7B5" fill-opacity="0.94"/>
<path d="M273.333 237.861L276.586 243.002L275.413 248.291L271.457 244.598L271.252 238.511L271.223 238.423C271.194 238.305 271.018 238.186 270.842 238.157C270.608 238.157 270.461 238.364 270.52 238.57L270.695 243.918L268.761 242.116L268.674 239.782L268.644 239.693C268.615 239.575 268.41 239.457 268.263 239.427C268.029 239.427 267.853 239.634 267.912 239.841L267.97 241.466L266.564 240.107C266.446 239.989 266.153 240.018 266.036 240.136C265.831 240.255 265.919 240.55 266.036 240.668L267.443 241.998L265.86 242.027C265.626 242.027 265.45 242.234 265.509 242.441C265.509 242.677 265.714 242.855 265.919 242.795L268.263 242.677L270.109 244.48L264.835 244.657C264.6 244.657 264.424 244.864 264.483 245.07C264.483 245.307 264.688 245.484 264.893 245.425L270.959 245.218L274.915 248.911L269.67 250.536L264.307 247.67C264.102 247.582 263.897 247.641 263.809 247.818C263.721 248.025 263.78 248.232 263.956 248.32L268.703 250.832L266.183 251.63L264.19 250.566C264.014 250.448 263.809 250.536 263.692 250.714C263.604 250.891 263.663 251.098 263.838 251.216L265.216 251.925L263.252 252.545C263.047 252.545 262.959 252.782 263.018 252.989C263.076 253.195 263.282 253.314 263.487 253.255L265.304 252.664L264.571 254.052C264.483 254.23 264.542 254.436 264.717 254.555C264.893 254.673 265.128 254.584 265.216 254.407L266.271 252.368L268.791 251.6L266.271 256.386C266.183 256.564 266.241 256.77 266.417 256.859C266.593 256.948 266.827 256.889 266.915 256.711L269.758 251.275L274.915 249.68L273.714 254.968L268.732 258.159C268.527 258.277 268.527 258.514 268.586 258.72C268.732 258.927 268.967 258.927 269.172 258.868L273.655 256.002L273.069 258.573L271.076 259.814C270.871 259.932 270.871 260.168 270.93 260.375C271.076 260.582 271.311 260.582 271.457 260.523L272.776 259.666L272.366 261.557C272.337 261.705 272.424 262 272.659 262C272.893 262 273.098 261.941 273.098 261.705L273.509 259.814L274.388 261.143C274.505 261.35 274.739 261.35 274.886 261.32C275.003 261.202 275.091 261.025 275.062 260.877L275.033 260.789L273.802 258.809L274.388 256.239L277.23 260.73C277.377 260.907 277.582 260.936 277.728 260.877C277.846 260.759 277.934 260.582 277.904 260.434L277.875 260.375L274.622 255.234L275.824 249.945L279.78 253.639L279.985 259.725C279.956 259.961 280.161 260.109 280.395 260.05C280.6 260.05 280.776 259.843 280.717 259.636L280.542 254.318L282.446 256.091L282.564 258.455C282.564 258.691 282.769 258.868 282.974 258.78C283.208 258.78 283.355 258.602 283.296 258.366L283.267 256.77L284.674 258.1C284.791 258.218 285.084 258.218 285.201 258.1C285.318 257.982 285.348 257.805 285.289 257.686C285.289 257.598 285.26 257.539 285.172 257.48L283.765 256.15L285.348 256.12C285.582 256.12 285.758 255.914 285.699 255.707L285.67 255.648C285.611 255.5 285.435 255.411 285.289 255.382L282.945 255.5L281.04 253.698L286.315 253.52C286.549 253.52 286.725 253.314 286.637 253.107V253.018C286.578 252.9 286.402 252.782 286.227 252.752L280.19 252.959L276.234 249.266L281.391 247.67L286.783 250.536C286.959 250.625 287.164 250.566 287.252 250.359C287.37 250.182 287.282 249.975 287.106 249.886L282.446 247.345L284.937 246.548L286.959 247.611C287.135 247.73 287.34 247.641 287.428 247.464C287.516 247.286 287.457 247.08 287.282 246.961L285.904 246.252L287.721 245.691C287.926 245.632 288.044 245.425 287.985 245.218C287.897 245.011 287.721 244.923 287.516 244.982L285.699 245.543L286.432 244.155C286.461 244.066 286.52 243.977 286.49 243.83C286.461 243.682 286.344 243.652 286.256 243.593C286.08 243.505 285.875 243.564 285.758 243.741L284.703 245.78L282.212 246.548L284.703 241.791C284.761 241.673 284.791 241.584 284.761 241.466C284.732 241.377 284.615 241.259 284.527 241.23C284.351 241.111 284.146 241.17 284.029 241.377L281.186 246.784L276.058 248.409L277.23 243.091L282.359 239.811C282.476 239.693 282.564 239.516 282.505 239.368V239.309C282.359 239.132 282.124 239.102 281.978 239.161L277.523 242.027L278.109 239.457L280.102 238.216C280.219 238.098 280.307 237.92 280.278 237.773L280.249 237.714C280.102 237.507 279.868 237.507 279.75 237.566L278.402 238.423L278.813 236.532C278.783 236.473 278.842 236.355 278.813 236.295C278.783 236.148 278.666 236.03 278.52 236C278.285 236 278.08 236.059 278.051 236.295L277.641 238.216L276.791 236.857C276.644 236.68 276.41 236.65 276.263 236.709C276.087 236.857 276.087 237.064 276.117 237.211L277.348 239.22L276.761 241.791L273.919 237.27C273.802 237.093 273.567 237.093 273.421 237.123C273.274 237.418 273.216 237.655 273.333 237.861Z" fill="#0ECDEF"/>
<path d="M248.601 300.046L245.88 297.85L248.088 297.002C248.293 296.902 248.447 296.603 248.396 296.253C248.242 296.054 247.934 295.854 247.677 295.954L244.75 297.052L242.285 295.006L248.19 292.81C248.55 292.661 248.704 292.361 248.55 292.112C248.498 291.762 248.139 291.613 247.779 291.762L241.258 294.158L238.999 292.361L240.077 285.824L242.491 284.876L248.19 289.517C248.293 289.567 248.396 289.567 248.498 289.567C248.601 289.617 248.858 289.517 248.961 289.417C249.269 289.167 249.217 288.818 248.909 288.668L243.672 284.427L246.701 283.329L249.423 285.425C249.423 285.525 249.525 285.575 249.628 285.575C249.833 285.624 250.09 285.525 250.244 285.325C250.398 285.125 250.296 284.776 250.142 284.527L247.934 282.88L251.682 281.483C251.887 281.433 252.041 281.133 251.99 280.784C251.836 280.535 251.528 280.385 251.271 280.435L247.779 281.732L248.139 279.487C248.19 279.187 247.882 278.938 247.677 278.888C247.369 278.838 246.958 278.988 246.907 279.337L246.444 282.231L243.415 283.279L244.442 277.291C244.493 276.942 244.288 276.692 243.98 276.642C243.62 276.592 243.364 276.792 243.312 277.091L242.234 283.728L239.667 284.776L234.378 280.535L234.788 278.089L241.412 275.594C241.772 275.544 241.977 275.145 241.772 274.896C241.72 274.546 241.361 274.497 241.053 274.546L234.994 276.792L235.507 273.648L238.537 272.6C238.742 272.55 238.948 272.101 238.845 271.902C238.742 271.702 238.383 271.453 238.023 271.552L235.713 272.401L236.329 268.608C236.38 268.309 236.123 268.059 235.764 268.009C235.559 267.959 235.199 268.109 235.148 268.458L234.532 272.201L232.478 270.654C232.324 270.504 231.964 270.455 231.708 270.754C231.554 270.954 231.605 271.403 231.81 271.552L234.275 273.498L233.761 276.592L228.781 272.6C228.473 272.451 228.113 272.401 227.856 272.7C227.702 272.9 227.754 273.349 227.959 273.498L233.556 277.89L233.145 280.335L226.778 282.73L224.673 280.984L225.751 274.347C225.803 273.997 225.648 273.748 225.289 273.698C224.981 273.648 224.622 273.848 224.57 274.147L223.543 280.185L221.027 278.239L221.541 275.345C221.592 274.996 221.387 274.746 221.079 274.696C220.719 274.646 220.462 274.846 220.411 275.145L220.052 277.391L217.176 275.095C216.971 274.946 216.509 274.996 216.354 275.195C216.2 275.495 216.149 275.794 216.457 275.944L219.435 278.389L216.919 279.337C216.663 279.537 216.457 279.836 216.56 280.036C216.611 280.285 216.817 280.435 217.073 280.485C217.073 280.485 217.176 280.485 217.279 280.385L220.565 279.237L223.03 281.183L216.765 283.628C216.406 283.678 216.252 283.978 216.406 284.327C216.509 284.427 216.611 284.577 216.817 284.626C216.919 284.626 217.022 284.626 217.125 284.676L224.057 281.982L226.059 283.628L224.981 290.165L222.208 291.163L216.765 286.922C216.457 286.622 216.149 286.722 215.944 287.022C215.687 287.171 215.79 287.521 216.046 287.77L220.976 291.662L217.946 292.81L215.533 290.914C215.328 290.764 215.019 290.814 214.763 291.014C214.557 291.313 214.506 291.613 214.814 291.762L216.611 293.259L213.376 294.507C213.017 294.557 212.966 294.906 213.017 295.255C213.12 295.355 213.325 295.505 213.53 295.555C213.53 295.555 213.633 295.555 213.736 295.555L217.279 294.257L216.817 296.952C216.765 297.152 216.919 297.501 217.279 297.551C217.587 297.601 217.895 297.301 217.895 297.102L218.46 293.758L221.489 292.611L220.411 299.148C220.36 299.497 220.668 299.746 220.976 299.796C221.284 299.846 221.592 299.647 221.643 299.347L222.824 292.162L225.34 291.213L230.629 295.455L230.167 298.249L223.441 300.745C223.184 300.894 223.03 301.194 223.081 301.543C223.184 301.693 223.338 301.792 223.595 301.842C223.697 301.892 223.8 301.892 223.954 301.792L229.962 299.547L229.448 302.641L226.419 303.838C226.162 303.888 226.008 304.238 226.059 304.537C226.265 304.786 226.573 304.986 226.829 304.886L229.243 303.938L228.678 307.381C228.627 307.581 228.935 307.98 229.14 307.98C229.448 308.08 229.859 307.781 229.859 307.581L230.475 304.138L232.324 305.735C232.426 305.785 232.58 305.785 232.683 305.785C232.889 305.834 233.145 305.785 233.248 305.685C233.402 305.385 233.351 305.036 233.197 304.786L230.681 302.84L231.194 299.746L236.175 303.739C236.483 303.988 236.842 303.938 236.996 303.739C237.253 303.439 237.202 303.09 236.996 302.84L231.399 298.449L231.862 295.655L238.28 293.259L240.385 294.906L239.153 302.092C239.102 302.441 239.307 302.641 239.615 302.741C239.975 302.79 240.231 302.591 240.283 302.291L241.361 295.704L243.877 297.75L243.312 301.094C243.261 301.293 243.569 301.693 243.877 301.743C244.185 301.792 244.493 301.493 244.545 301.293L244.955 298.599L247.882 300.944C247.985 300.944 247.985 300.944 248.088 300.944C248.293 300.994 248.55 300.944 248.652 300.844C248.858 300.545 248.755 300.196 248.601 300.046ZM232.067 294.357L231.348 294.607L230.835 294.207L226.573 290.764L226.059 290.365L226.162 289.716L227.035 284.427L227.138 283.828L227.754 283.579L232.94 281.632L233.556 281.383L234.172 281.832L238.331 285.225L238.948 285.674L238.845 286.323L237.972 291.563L237.869 292.211L237.15 292.411L232.067 294.357Z" fill="#0ECDEF"/>
<path d="M320.461 343.371L322.95 345.475L320.913 346.306C320.687 346.361 320.518 346.638 320.574 346.97C320.744 347.247 321.027 347.358 321.253 347.302L324.024 346.306L326.343 348.243L320.744 350.237C320.404 350.403 320.235 350.68 320.404 350.956C320.461 351.289 320.744 351.399 321.083 351.289L327.305 349.074L329.454 350.79L328.323 356.992L326.06 357.877L320.744 353.393C320.631 353.393 320.518 353.393 320.404 353.337C320.291 353.337 320.065 353.393 319.952 353.503C319.726 353.78 319.782 354.057 320.065 354.223L324.929 358.32L322.045 359.317L319.5 357.268C319.556 357.213 319.443 357.158 319.33 357.158C319.104 357.102 318.877 357.213 318.764 357.379C318.595 357.545 318.651 357.877 318.821 358.099L320.913 359.705L317.35 361.033C317.124 361.089 316.954 361.366 317.011 361.698C317.181 361.919 317.52 362.085 317.746 362.03L321.027 360.812L320.687 362.916C320.631 363.248 320.913 363.525 321.083 363.525C321.423 363.58 321.762 363.414 321.818 363.137L322.271 360.369L325.155 359.372L324.137 365.075C324.081 365.407 324.25 365.629 324.59 365.684C324.873 365.74 325.155 365.574 325.155 365.297L326.287 358.929L328.719 357.988L333.696 362.085L333.243 364.411L326.965 366.736C326.626 366.792 326.456 367.179 326.626 367.401C326.682 367.733 327.022 367.788 327.305 367.733L333.017 365.629L332.508 368.619L329.68 369.615C329.454 369.671 329.284 370.058 329.341 370.28C329.397 370.501 329.793 370.667 330.132 370.612L332.338 369.837L331.66 373.38C331.66 373.713 331.886 373.934 332.225 373.989C332.451 374.045 332.791 373.879 332.847 373.602L333.469 370.003L335.336 371.498C335.505 371.609 335.845 371.664 336.128 371.387C336.241 371.221 336.184 370.778 336.015 370.667L333.696 368.785L334.205 365.85L338.899 369.671C339.182 369.837 339.465 369.892 339.747 369.615C339.86 369.394 339.86 369.006 339.634 368.84L334.431 364.632L334.827 362.251L340.879 360.037L342.858 361.753L341.727 368.065C341.67 368.342 341.84 368.619 342.179 368.674C342.462 368.674 342.801 368.563 342.858 368.231L343.876 362.528L346.252 364.411L345.743 367.179C345.686 367.456 345.856 367.677 346.195 367.733C346.478 367.788 346.704 367.622 346.761 367.345L347.156 365.186L349.871 367.401C350.041 367.567 350.493 367.511 350.663 367.345C350.776 367.068 350.833 366.736 350.55 366.625L347.779 364.245L350.154 363.359C350.38 363.193 350.55 362.916 350.493 362.694C350.437 362.473 350.211 362.362 350.041 362.307C350.041 362.307 349.928 362.307 349.815 362.362L346.704 363.414L344.385 361.587L350.324 359.317C350.663 359.262 350.833 358.985 350.663 358.653C350.55 358.542 350.493 358.431 350.267 358.376C350.154 358.376 350.097 358.32 349.984 358.32L343.424 360.812L341.557 359.206L342.632 353.005L345.29 352.064L350.324 356.161C350.607 356.438 350.946 356.382 351.116 356.106C351.342 355.94 351.285 355.607 351.002 355.331L346.421 351.621L349.306 350.569L351.568 352.396C351.738 352.562 352.077 352.507 352.303 352.341C352.473 352.008 352.529 351.732 352.247 351.566L350.55 350.126L353.661 348.963C354 348.908 354 348.631 354 348.299C353.887 348.188 353.717 348.022 353.491 348.022C353.491 348.022 353.378 347.967 353.265 347.967L349.984 349.185L350.38 346.638C350.437 346.472 350.267 346.084 349.984 346.029C349.645 345.973 349.419 346.25 349.362 346.472L348.797 349.628L345.969 350.735L347.043 344.534C347.1 344.202 346.817 343.925 346.478 343.869C346.138 343.814 345.969 344.036 345.912 344.312L344.668 351.123L342.292 352.008L337.315 347.911L337.824 345.254L344.215 342.984C344.442 342.817 344.611 342.541 344.555 342.208C344.442 342.098 344.272 341.932 344.046 341.932C343.933 341.876 343.876 341.876 343.706 341.987L337.994 344.036L338.503 341.101L341.388 339.994C341.614 339.938 341.783 339.661 341.727 339.329C341.557 339.108 341.274 338.942 341.048 338.997L338.729 339.883L339.295 336.616C339.351 336.395 339.069 336.063 338.899 336.007C338.56 335.952 338.22 336.229 338.164 336.395L337.598 339.661L335.845 338.111C335.732 338.111 335.619 338.111 335.505 338.056C335.336 338.056 335.11 338.111 334.94 338.167C334.827 338.443 334.883 338.776 335.053 339.052L337.372 340.88L336.863 343.869L332.169 340.049C331.886 339.772 331.603 339.828 331.433 339.994C331.15 340.271 331.207 340.603 331.377 340.824L336.637 345.087L336.184 347.745L330.132 349.96L328.153 348.354L329.341 341.544C329.397 341.212 329.228 340.99 328.888 340.935C328.605 340.88 328.379 341.046 328.323 341.378L327.191 347.579L324.873 345.586L325.438 342.43C325.495 342.264 325.212 341.876 324.873 341.821C324.59 341.765 324.307 342.042 324.307 342.264L323.855 344.811L321.14 342.596C321.027 342.541 321.027 342.541 320.913 342.541C320.687 342.485 320.461 342.541 320.348 342.651C320.235 342.928 320.235 343.26 320.461 343.371ZM335.958 348.963L336.637 348.742L337.146 349.129L341.161 352.451L341.614 352.839L341.501 353.448L340.652 358.431L340.539 359.04L339.974 359.262L335.053 361.033L334.431 361.255L333.865 360.867L329.963 357.601L329.397 357.158L329.51 356.549L330.359 351.566L330.472 350.956L331.15 350.735L335.958 348.963Z" fill="#1BD7B5" fill-opacity="0.94"/>
<path d="M326.78 277.76L329.185 279.834L327.235 280.612C327.04 280.677 326.845 280.936 326.91 281.26C327.105 281.454 327.365 281.649 327.56 281.584L330.225 280.612L332.435 282.492L327.105 284.436C326.715 284.566 326.585 284.89 326.78 285.084C326.78 285.409 327.105 285.603 327.43 285.409L333.345 283.269L335.425 284.955L334.385 291.048L332.175 291.891L327.04 287.548C326.975 287.483 326.845 287.483 326.78 287.483C326.65 287.418 326.455 287.483 326.325 287.612C326.065 287.872 326.13 288.196 326.39 288.326L331.07 292.28L328.34 293.252L325.87 291.307C325.935 291.178 325.805 291.178 325.74 291.178C325.48 291.113 325.285 291.178 325.155 291.372C325.025 291.567 325.09 291.891 325.22 292.085L327.235 293.706L323.855 294.937C323.595 295.002 323.465 295.261 323.53 295.586C323.66 295.845 323.985 295.974 324.18 295.91L327.365 294.743L326.975 296.817C326.975 297.141 327.235 297.336 327.43 297.401C327.69 297.465 328.015 297.271 328.08 297.012L328.535 294.289L331.265 293.382L330.355 298.891C330.29 299.216 330.42 299.475 330.745 299.475C331.005 299.54 331.265 299.41 331.33 299.086L332.37 292.928L334.71 292.02L339.455 295.974L339.065 298.243L333.02 300.512C332.695 300.577 332.565 300.966 332.695 301.16C332.76 301.484 333.085 301.549 333.345 301.484L338.87 299.475L338.35 302.327L335.62 303.299C335.425 303.364 335.23 303.753 335.295 303.948C335.36 304.142 335.75 304.336 336.075 304.336L338.155 303.559L337.57 306.994C337.505 307.318 337.765 307.578 338.025 307.642C338.285 307.642 338.61 307.513 338.61 307.189L339.26 303.753L341.015 305.179C341.21 305.309 341.535 305.374 341.795 305.114C341.925 304.92 341.86 304.466 341.73 304.336L339.455 302.521L339.975 299.669L344.46 303.364C344.72 303.559 344.98 303.623 345.24 303.299C345.37 303.17 345.37 302.716 345.175 302.586L340.17 298.438L340.56 296.169L346.345 294.03L348.23 295.65L347.19 301.808C347.125 302.133 347.255 302.327 347.58 302.392C347.905 302.457 348.23 302.327 348.23 302.003L349.205 296.428L351.48 298.243L351.025 300.966C350.96 301.225 351.09 301.484 351.415 301.549C351.74 301.549 351.935 301.419 352 301.095L352.39 299.021L354.99 301.225C355.12 301.355 355.575 301.29 355.705 301.16C355.835 300.836 355.9 300.577 355.64 300.382L352.91 298.114L355.25 297.271C355.445 297.076 355.64 296.817 355.575 296.623C355.51 296.363 355.315 296.234 355.12 296.234C355.12 296.234 354.99 296.234 354.86 296.299L351.935 297.336L349.66 295.521L355.38 293.317C355.705 293.252 355.9 292.993 355.705 292.669C355.64 292.539 355.575 292.409 355.38 292.344C355.25 292.344 355.185 292.344 355.055 292.344L348.815 294.743L346.995 293.187L348.035 287.159L350.57 286.251L355.445 290.205C355.705 290.465 356.03 290.465 356.16 290.141C356.355 290.011 356.355 289.687 356.095 289.428L351.675 285.798L354.405 284.76L356.55 286.575C356.745 286.705 357.07 286.64 357.33 286.446C357.46 286.186 357.525 285.862 357.2 285.733L355.64 284.307L358.565 283.205C358.89 283.14 358.955 282.881 358.89 282.556C358.825 282.427 358.63 282.297 358.435 282.232C358.435 282.232 358.37 282.232 358.24 282.232L355.055 283.399L355.51 280.936C355.51 280.741 355.38 280.417 355.055 280.353C354.795 280.288 354.535 280.547 354.47 280.741L353.95 283.853L351.22 284.89L352.26 278.862C352.325 278.537 352.065 278.278 351.74 278.278C351.415 278.278 351.22 278.343 351.155 278.667L349.985 285.344L347.71 286.122L342.965 282.168L343.42 279.575L349.53 277.371C349.79 277.176 349.92 276.917 349.855 276.593C349.79 276.463 349.595 276.334 349.4 276.334C349.335 276.269 349.205 276.269 349.075 276.334L343.615 278.408L344.135 275.491L346.865 274.454C347.06 274.389 347.255 274.065 347.19 273.806C346.995 273.546 346.735 273.417 346.54 273.481L344.33 274.324L344.85 271.148C344.915 270.953 344.655 270.564 344.46 270.564C344.135 270.5 343.81 270.759 343.745 270.953L343.225 274.13L341.535 272.639C341.405 272.574 341.34 272.574 341.21 272.574C341.015 272.509 340.82 272.574 340.69 272.639C340.56 272.963 340.625 273.287 340.755 273.481L343.03 275.296L342.51 278.213L338.025 274.454C337.765 274.194 337.44 274.259 337.31 274.454C337.05 274.713 337.115 275.037 337.31 275.232L342.315 279.38L341.86 281.973L336.075 284.177L334.19 282.621L335.295 275.945C335.36 275.621 335.23 275.426 334.905 275.361C334.58 275.296 334.385 275.491 334.32 275.75L333.28 281.843L331.07 279.899L331.59 276.852C331.59 276.658 331.33 276.269 331.07 276.204C330.745 276.204 330.485 276.463 330.485 276.658L330.03 279.121L327.43 276.917C327.365 276.917 327.365 276.917 327.235 276.917C327.04 276.852 326.845 276.917 326.715 277.047C326.585 277.306 326.585 277.63 326.78 277.76ZM341.665 283.14L342.315 282.945L342.77 283.334L346.605 286.575L347.06 286.964L346.93 287.548L346.085 292.409L346.02 292.993L345.435 293.252L340.755 295.002L340.17 295.197L339.65 294.808L335.88 291.567L335.36 291.178L335.425 290.594L336.27 285.733L336.4 285.149L337.05 284.955L341.665 283.14Z" fill="#EFA40E"/>
<path d="M281.361 332.817L282.697 330.564L283.613 332.053C283.69 332.206 283.957 332.283 284.186 332.206C284.377 332.053 284.453 331.786 284.377 331.633L283.193 329.647L284.415 327.547L286.782 331.595C286.935 331.863 287.202 331.939 287.355 331.786C287.622 331.71 287.698 331.442 287.507 331.213L284.911 326.707L285.98 324.797L291.058 324.759L292.089 326.439L289.264 331.175C289.264 331.251 289.264 331.366 289.264 331.442C289.264 331.519 289.34 331.672 289.454 331.786C289.683 331.939 289.951 331.863 290.027 331.595L292.585 327.28L293.73 329.342L292.509 331.595C292.432 331.595 292.432 331.672 292.432 331.748C292.432 331.939 292.509 332.092 292.7 332.168C292.852 332.244 293.081 332.168 293.272 332.015L294.265 330.182L295.754 332.741C295.83 332.894 296.097 332.97 296.326 332.894C296.517 332.741 296.594 332.474 296.517 332.321L295.066 329.915H296.823C297.09 329.915 297.243 329.647 297.243 329.495C297.243 329.227 297.09 328.998 296.823 328.998H294.57L293.387 326.936L298.044 326.898C298.312 326.898 298.464 326.745 298.464 326.478C298.464 326.248 298.312 326.058 298.044 326.058L292.89 326.096L291.821 324.339L294.379 319.947L296.288 319.909L298.961 324.492C299.037 324.721 299.381 324.835 299.533 324.644C299.8 324.568 299.8 324.301 299.724 324.072L297.281 319.909H299.686L300.869 321.971C300.946 322.162 301.289 322.238 301.442 322.162C301.595 322.086 301.709 321.742 301.595 321.475L300.679 319.909H303.58C303.847 319.909 304 319.642 304 319.374C304 319.221 303.847 318.992 303.58 318.992H300.679L301.595 317.312C301.671 317.159 301.671 316.892 301.404 316.739C301.251 316.663 300.908 316.739 300.831 316.892L299.686 318.992H297.281L299.648 314.83C299.762 314.6 299.762 314.333 299.495 314.18C299.342 314.104 298.999 314.18 298.922 314.333L296.288 318.992L294.379 319.03L291.783 314.639L292.852 312.882L298.006 312.844C298.235 312.844 298.426 312.691 298.426 312.424C298.388 312.194 298.235 311.927 298.006 311.927L293.349 311.965L294.494 309.865H296.746C296.975 309.865 297.166 309.674 297.128 309.445C297.128 309.177 296.975 309.025 296.746 309.025H294.99L296.403 306.619C296.479 306.466 296.365 306.122 296.212 306.046C295.983 305.969 295.716 305.969 295.639 306.198L294.15 308.719L293.158 306.962C292.967 306.809 292.738 306.733 292.547 306.809C292.394 306.886 292.318 307.039 292.318 307.23C292.318 307.23 292.318 307.306 292.394 307.382L293.654 309.636L292.509 311.698L289.913 307.382C289.836 307.153 289.569 307.077 289.302 307.23C289.225 307.306 289.149 307.382 289.149 307.573C289.149 307.65 289.149 307.726 289.149 307.802L292.012 312.538L291.02 314.218H285.942L284.873 312.309L287.393 307.841C287.584 307.573 287.507 307.306 287.24 307.23C287.087 307.077 286.82 307.153 286.667 307.421L284.339 311.507L283.079 309.406L284.262 307.421C284.339 307.268 284.262 307 284.071 306.848C283.842 306.771 283.575 306.771 283.499 307L282.583 308.528L281.246 306.275C281.17 306.007 280.903 306.007 280.674 306.122C280.597 306.198 280.521 306.351 280.521 306.542C280.521 306.542 280.521 306.619 280.521 306.695L281.933 309.101H279.834C279.681 309.101 279.452 309.292 279.452 309.521C279.452 309.788 279.681 309.941 279.872 309.941H282.43L283.69 312.003L278.612 312.042C278.383 312.042 278.192 312.271 278.192 312.538C278.192 312.805 278.383 312.958 278.612 312.958L284.186 312.92L285.217 314.639L282.659 319.069H280.483L277.81 314.448C277.619 314.257 277.39 314.18 277.123 314.295C277.047 314.371 276.97 314.524 276.97 314.677C276.97 314.791 276.97 314.868 277.047 314.944L279.49 319.107H277.085L275.825 317.045C275.749 316.854 275.482 316.777 275.214 316.854C275.062 317.045 274.985 317.274 275.062 317.465L276.092 319.107H273.42C273.229 319.107 273 319.374 273 319.527C273 319.794 273.267 320.023 273.42 320.023H276.092L275.1 321.589C275.1 321.704 275.1 321.78 275.1 321.857C275.1 322.009 275.176 322.2 275.252 322.277C275.52 322.353 275.749 322.277 275.94 322.086L277.085 320.023H279.49L277.085 324.186C276.932 324.415 277.009 324.683 277.2 324.759C277.429 324.912 277.696 324.835 277.849 324.683L280.483 319.985H282.659L285.255 324.377L284.262 326.134L278.688 326.172C278.421 326.172 278.268 326.325 278.268 326.592C278.268 326.821 278.421 327.012 278.688 327.012L283.766 326.974L282.506 329.075H279.948C279.796 329.075 279.528 329.304 279.528 329.571C279.528 329.8 279.796 329.991 279.948 329.991H282.01L280.635 332.397C280.635 332.474 280.635 332.474 280.635 332.55C280.635 332.741 280.712 332.894 280.788 332.97C281.055 333.046 281.284 332.97 281.361 332.817ZM283.651 319.985L283.384 319.489L283.651 319.069L285.713 315.479L285.942 315.059H286.438H290.523H291.02L291.287 315.441L293.349 319.03L293.616 319.451L293.387 319.947L291.325 323.461L291.058 323.957H290.562H286.477H285.98L285.751 323.461L283.651 319.985Z" fill="#EFA40E"/>
</g>
<defs>
<filter id="filter0_f_1124_33875" x="303.743" y="248.337" width="12.2356" height="12.2129" filterUnits="userSpaceOnUse" color-interpolation-filters="sRGB">
<feFlood flood-opacity="0" result="BackgroundImageFix"/>
<feBlend mode="normal" in="SourceGraphic" in2="BackgroundImageFix" result="shape"/>
<feGaussianBlur stdDeviation="1" result="effect1_foregroundBlur_1124_33875"/>
</filter>
<filter id="filter1_f_1124_33875" x="263.743" y="278.337" width="12.2356" height="12.2129" filterUnits="userSpaceOnUse" color-interpolation-filters="sRGB">
<feFlood flood-opacity="0" result="BackgroundImageFix"/>
<feBlend mode="normal" in="SourceGraphic" in2="BackgroundImageFix" result="shape"/>
<feGaussianBlur stdDeviation="1" result="effect1_foregroundBlur_1124_33875"/>
</filter>
<filter id="filter2_f_1124_33875" x="316.271" y="306.653" width="13.3081" height="13.2825" filterUnits="userSpaceOnUse" color-interpolation-filters="sRGB">
<feFlood flood-opacity="0" result="BackgroundImageFix"/>
<feBlend mode="normal" in="SourceGraphic" in2="BackgroundImageFix" result="shape"/>
<feGaussianBlur stdDeviation="1" result="effect1_foregroundBlur_1124_33875"/>
</filter>
<filter id="filter3_f_1124_33875" x="286.271" y="356.653" width="13.3081" height="13.2825" filterUnits="userSpaceOnUse" color-interpolation-filters="sRGB">
<feFlood flood-opacity="0" result="BackgroundImageFix"/>
<feBlend mode="normal" in="SourceGraphic" in2="BackgroundImageFix" result="shape"/>
<feGaussianBlur stdDeviation="1" result="effect1_foregroundBlur_1124_33875"/>
</filter>
<filter id="filter4_f_1124_33875" x="186.271" y="346.653" width="13.3081" height="13.2825" filterUnits="userSpaceOnUse" color-interpolation-filters="sRGB">
<feFlood flood-opacity="0" result="BackgroundImageFix"/>
<feBlend mode="normal" in="SourceGraphic" in2="BackgroundImageFix" result="shape"/>
<feGaussianBlur stdDeviation="1" result="effect1_foregroundBlur_1124_33875"/>
</filter>
<clipPath id="clip0_1124_33875">
<rect width="358" height="376" fill="white"/>
</clipPath>
</defs>
</svg>
