<svg width="1024" height="1024" version="1.1" xmlns="http://www.w3.org/2000/svg" xmlns:xlink="http://www.w3.org/1999/xlink">
	<path id="Background" d="m0 357.5c0-180.46 0-245.38 56.06-301.44s120.99-56.06 326.74-56.06h258.39c205.76 0 270.68 0 326.74 56.06s56.06 120.99 56.06 326.74v258.39c0 205.76 0 270.68-56.06 326.74-56.06 56.059-120.99 56.059-326.74 56.059h-258.39c-205.76 0-270.68 0-326.74-56.059-56.06-56.06-56.06-120.99-56.06-326.74z" fill="#003e88"/>
	<mask id="Frame_Mask" maskUnits="userSpaceOnUse">
		<use xlink:href="#Background"/>
	</mask>
	<g fill="none" mask="url(#Frame_Mask)" stroke="#4169e1" stroke-width="1024">
		<path d="m-2e-5 512h1024" stroke-dasharray="1.024, 49.152, 1.024, 0"/>
		<path d="m512-2.41e-5v1024" stroke-dasharray="1.024, 49.152, 1.024, 0"/>
		<path d="m-2e-5 512h1024" stroke-dasharray="2.56, 506.88, 2.56, 0"/>
		<path d="m512-2.41e-5v1024" stroke-dasharray="2.56, 506.88, 2.56, 0"/>
	</g>
	<radialGradient id="Aurora_Gradient" cx="253.16" cy="572.03" r="346.86" gradientTransform="matrix(1.7323 .99965 -1 1.7329 540.61 -618.36)" gradientUnits="userSpaceOnUse">
		<stop stop-color="#fff" offset="0"/>
		<stop stop-color="#fff" stop-opacity="0" offset="1"/>
	</radialGradient>
	<path d="m820.13 625.96h-23.404a3.7229 3.7229 0 0 1-3.2222-5.5952l8.1207-14.064a12.388 12.388 0 0 0 0-12.41l-35.161-60.959-53.775 93.007h-17.831a3.7229 3.7229 0 0 1-3.2222-5.5952l59.109-102.32a12.388 12.388 0 0 0 0-12.41l-35.161-60.959-204.15 353.24-9.2745-16.045a9.8624 9.8624 0 0 1 0-9.9277l197.7-341.96a12.388 12.388 0 0 0 0-12.41l-35.161-60.959-204.21 353.19-9.2528-16.045a9.8624 9.8624 0 0 1 0-9.9277l197.75-342.05a12.388 12.388 0 0 0 0-12.41l-35.182-61.003-206.7 357.61h-17.722a3.7229 3.7229 0 0 1-3.2221-5.5952l211.92-366.76a12.453 12.453 0 0 0 0-12.41l-35.182-60.959-257.66 445.72h-17.831a3.7229 3.7229 0 0 1-3.2221-5.5952l263.02-455.02a12.388 12.388 0 0 0 0-12.41l-35.204-60.938-346.86 601.06h208.15l138.16 238.94 138.18-238.94h209.22z" fill="url(#Aurora_Gradient)"/>
</svg>
