<?xml version="1.0" standalone="no"?>
<!DOCTYPE svg PUBLIC "-//W3C//DTD SVG 20010904//EN"
 "http://www.w3.org/TR/2001/REC-SVG-20010904/DTD/svg10.dtd">
<svg version="1.0" xmlns="http://www.w3.org/2000/svg"
 width="1024.000000pt" height="1024.000000pt" viewBox="0 0 1024.000000 1024.000000"
 preserveAspectRatio="xMidYMid meet">

<g transform="translate(0.000000,1024.000000) scale(0.100000,-0.100000)"
fill="#000000" stroke="none">
<path d="M1358 10229 c-102 -12 -284 -59 -383 -98 -203 -81 -359 -185 -520
-346 -225 -225 -354 -465 -427 -797 l-23 -103 0 -3765 0 -3765 23 -103 c34
-157 68 -256 132 -387 77 -159 161 -276 295 -410 225 -225 465 -354 797 -427
l103 -23 3765 0 3765 0 103 23 c157 34 256 68 387 132 159 77 276 161 410 295
225 225 354 465 427 797 l23 103 0 3765 0 3765 -23 103 c-34 157 -68 256 -132
387 -77 159 -161 276 -295 410 -223 223 -459 350 -792 427 l-98 23 -3730 1
c-2118 1 -3763 -2 -3807 -7z m3885 -2199 c33 -12 70 -37 95 -63 23 -23 345
-496 715 -1052 l674 -1010 779 -5 c718 -5 782 -6 818 -23 70 -31 123 -83 158
-155 52 -106 47 -154 -50 -507 -44 -159 -148 -540 -232 -845 -83 -305 -173
-634 -200 -730 -27 -96 -101 -368 -165 -605 -81 -299 -128 -453 -153 -505 -50
-103 -168 -223 -270 -274 -154 -77 51 -71 -2302 -71 l-2105 0 -85 31 c-106 38
-182 87 -257 167 -98 105 -120 158 -237 587 -57 212 -202 741 -321 1175 -195
710 -284 1036 -362 1325 -18 67 -24 109 -20 145 11 107 79 205 175 252 l57 28
780 5 779 5 678 1015 c447 670 693 1029 723 1057 25 23 64 48 88 56 63 23 175
21 240 -3z"/>
<path d="M4960 7013 c-176 -259 -263 -387 -548 -805 -111 -163 -202 -299 -202
-302 0 -3 410 -6 910 -6 501 0 910 3 910 6 0 5 -152 230 -465 689 -46 66 -162
237 -259 380 -98 143 -181 261 -185 263 -3 1 -76 -100 -161 -225z"/>
<path d="M4924 4622 c-100 -35 -176 -85 -251 -165 -108 -116 -163 -255 -163
-414 0 -110 14 -172 62 -272 49 -102 159 -219 253 -268 185 -97 407 -97 590 0
33 18 92 64 131 102 116 115 171 234 181 391 12 191 -45 344 -176 475 -131
130 -250 179 -433 179 -98 0 -124 -4 -194 -28z"/>
</g>
</svg>
