<svg width="358" height="376" viewBox="0 0 358 376" fill="none" xmlns="http://www.w3.org/2000/svg">
<g clip-path="url(#clip0_1117_34269)">
<path d="M274.842 207.457C276.674 209.288 279.158 210.317 281.748 210.317C284.338 210.317 286.823 209.288 288.654 207.457C290.486 205.625 291.515 203.141 291.515 200.551C291.515 197.961 290.486 195.476 288.654 193.645C286.823 191.813 284.338 190.784 281.748 190.784C279.158 190.784 276.674 191.813 274.842 193.645C273.01 195.476 271.981 197.961 271.981 200.551C271.981 203.141 273.01 205.625 274.842 207.457V207.457Z" stroke="#D3B714"/>
<path d="M234.47 270.603C237.444 273.577 241.477 275.248 245.683 275.248C249.89 275.248 253.923 273.577 256.897 270.603C259.872 267.629 261.542 263.595 261.542 259.389C261.542 255.183 259.872 251.149 256.897 248.175C253.923 245.201 249.89 243.53 245.683 243.53C241.477 243.53 237.444 245.201 234.47 248.175C231.495 251.149 229.825 255.183 229.825 259.389C229.825 263.595 231.495 267.629 234.47 270.603V270.603Z" fill="#D3B714"/>
<path d="M297.214 292.642C300.188 295.616 304.222 297.287 308.428 297.287C312.634 297.287 316.668 295.616 319.642 292.642C322.616 289.668 324.287 285.634 324.287 281.428C324.287 277.222 322.616 273.188 319.642 270.214C316.668 267.24 312.634 265.569 308.428 265.569C304.222 265.569 300.188 267.24 297.214 270.214C294.24 273.188 292.569 277.222 292.569 281.428C292.569 285.634 294.24 289.668 297.214 292.642V292.642Z" fill="#D3B714"/>
<path d="M323.237 207.337L328.053 202.521L332.868 207.337L328.053 212.152L323.237 207.337Z" stroke="#D3B714"/>
<path d="M315.54 171.531C315.845 171.836 316.259 172.008 316.691 172.008C317.123 172.008 317.537 171.836 317.843 171.531C318.148 171.225 318.32 170.811 318.32 170.379C318.32 169.948 318.148 169.533 317.843 169.228C317.537 168.923 317.123 168.751 316.691 168.751C316.259 168.751 315.845 168.923 315.54 169.228C315.234 169.533 315.063 169.948 315.063 170.379C315.063 170.811 315.234 171.225 315.54 171.531V171.531Z" fill="#D3B714"/>
<path d="M258.787 355.901C260.931 358.045 263.84 359.249 266.872 359.249C269.905 359.249 272.813 358.045 274.957 355.901C277.102 353.756 278.306 350.848 278.306 347.815C278.306 344.783 277.102 341.875 274.957 339.73C272.813 337.586 269.905 336.381 266.872 336.381C263.84 336.381 260.931 337.586 258.787 339.73C256.643 341.875 255.438 344.783 255.438 347.815C255.438 350.848 256.643 353.756 258.787 355.901V355.901Z" fill="#D3B714"/>
<path d="M313.213 368.872C314.262 369.922 315.686 370.511 317.17 370.511C318.655 370.511 320.078 369.922 321.128 368.872C322.177 367.823 322.767 366.399 322.767 364.915C322.767 363.43 322.177 362.007 321.128 360.957C320.078 359.908 318.655 359.318 317.17 359.318C315.686 359.318 314.262 359.908 313.213 360.957C312.163 362.007 311.574 363.43 311.574 364.915C311.574 366.399 312.163 367.823 313.213 368.872V368.872Z" fill="#D3B714"/>
<path d="M358.649 118.98L361.519 116.109L367.205 121.795L364.334 124.665L358.649 118.98Z" stroke="#037B0B"/>
<path d="M230.699 316.862C231.709 317.872 232.909 318.673 234.229 319.22C235.549 319.767 236.963 320.048 238.392 320.048C239.821 320.048 241.235 319.767 242.555 319.22C243.875 318.673 245.075 317.872 246.085 316.862C247.095 315.852 247.897 314.652 248.443 313.332C248.99 312.012 249.271 310.598 249.271 309.169C249.271 307.74 248.99 306.326 248.443 305.006C247.897 303.686 247.095 302.486 246.085 301.476C245.075 300.466 243.875 299.664 242.555 299.118C241.235 298.571 239.821 298.29 238.392 298.29C236.963 298.29 235.549 298.571 234.229 299.118C232.909 299.664 231.709 300.466 230.699 301.476C229.689 302.486 228.888 303.686 228.341 305.006C227.794 306.326 227.513 307.74 227.513 309.169C227.513 310.598 227.794 312.012 228.341 313.332C228.888 314.652 229.689 315.852 230.699 316.862V316.862Z" fill="#D3B714"/>
<path d="M319.726 333.533C321.26 335.067 323.341 335.929 325.51 335.929C327.68 335.929 329.761 335.067 331.295 333.533C332.829 331.999 333.691 329.918 333.691 327.748C333.691 325.579 332.829 323.498 331.295 321.964C329.761 320.429 327.68 319.568 325.51 319.568C323.341 319.568 321.26 320.429 319.726 321.964C318.192 323.498 317.33 325.579 317.33 327.748C317.33 329.918 318.192 331.999 319.726 333.533V333.533Z" fill="#037B0B"/>
<path d="M266.898 246.007C268.418 247.527 270.481 248.382 272.632 248.382C274.782 248.382 276.845 247.527 278.365 246.007C279.886 244.486 280.74 242.423 280.74 240.273C280.74 238.122 279.886 236.06 278.365 234.539C276.845 233.018 274.782 232.164 272.632 232.164C270.481 232.164 268.418 233.018 266.898 234.539C265.377 236.06 264.523 238.122 264.523 240.273C264.523 242.423 265.377 244.486 266.898 246.007Z" stroke="#037B0B"/>
</g>
<defs>
<clipPath id="clip0_1117_34269">
<rect width="358" height="376" fill="white"/>
</clipPath>
</defs>
</svg>
