<svg width="358" height="376" viewBox="0 0 358 376" fill="none" xmlns="http://www.w3.org/2000/svg">
<g clip-path="url(#clip0_1117_34490)">
<path d="M236.535 376.968C259.515 357.098 225.254 296.58 282.083 272.349C338.911 248.119 341.755 200.671 373.177 194.339" stroke="#00AF57" stroke-opacity="0.92" stroke-width="2"/>
<path d="M198.177 411C234.568 362.965 207.308 216.758 264.122 189.315C320.936 161.872 297.095 218.864 330.067 218.864C363.04 218.864 377.413 190.197 396.012 189.315" stroke="#00AF57" stroke-opacity="0.92" stroke-width="2"/>
<path d="M205.416 391.844C251.577 352.226 239.914 189.214 297.08 182.645C354.25 176.077 355.32 263.852 388.749 272.476" stroke="#00AF57" stroke-opacity="0.92" stroke-width="2"/>
<path d="M205.094 389.834C251.117 345.641 229.212 182.696 294.077 165.992C358.947 149.288 356.594 213.491 383.066 215.635" stroke="#00AF57" stroke-opacity="0.92" stroke-width="2"/>
<path d="M255.67 410.916C281.83 360.47 246.509 213.904 300.523 193.646C354.543 173.388 363.253 243.264 390.235 245.653" stroke="#00AF57" stroke-opacity="0.92" stroke-width="2"/>
<path d="M266 434C297.273 402.206 273.847 305.435 322.671 287.271C371.494 269.107 351.006 306.829 379.341 306.829C407.677 306.829 420.029 287.855 436.012 287.271" stroke="#00AF57" stroke-opacity="0.92" stroke-width="2"/>
<path d="M271.944 419.991C311.494 390.74 292.671 282.89 348.413 271.834C404.16 260.778 402.138 303.272 424.887 304.692" stroke="#00AF57" stroke-opacity="0.92" stroke-width="2"/>
<path d="M315.407 433.944C337.888 400.555 307.534 303.546 353.952 290.137C400.375 276.729 407.86 322.979 431.048 324.56" stroke="#00AF57" stroke-opacity="0.92" stroke-width="2"/>
</g>
<defs>
<clipPath id="clip0_1117_34490">
<rect width="358" height="376" fill="white"/>
</clipPath>
</defs>
</svg>
